<svg width="18" height="18" viewBox="0 0 18 18" fill="none" xmlns="http://www.w3.org/2000/svg">
<path d="M16 0.000732422H2C0.89 0.000732422 0 0.890732 0 2.00073V16.0007C0 17.1107 0.89 18.0007 2 18.0007H16C17.11 18.0007 18 17.1107 18 16.0007V2.00073C18 0.890732 17.11 0.000732422 16 0.000732422ZM14.1 10.0007H10V11.0007H14C14 11.0007 13.94 14.0007 12.5 14.0007C11.15 14.0007 11.5 12.4707 10 12.0007V14.0007C10 14.5507 9.55 15.0007 9 15.0007C8.45 15.0007 8 14.5507 8 14.0007V12.0007C6.5 12.4707 6.85 14.0007 5.5 14.0007C4.06 14.0007 4 11.0007 4 11.0007H8V10.0007H3.9C3.85 9.69073 3.84 9.35073 3.8 9.00073H8V8.00073H3.81C3.83 7.67073 3.91 7.33073 4 7.00073H8V6.00073H4.34C4.5 5.65073 4.65 5.31073 4.83 5.00073H8V4.00073C8 3.45073 8.45 3.00073 9 3.00073C9.55 3.00073 10 3.45073 10 4.00073V5.00073H13.17C13.35 5.31073 13.5 5.65073 13.66 6.00073H10V7.00073H14C14.1 7.33073 14.17 7.67073 14.19 8.00073H10V9.00073H14.2C14.16 9.35073 14.15 9.69073 14.1 10.0007Z" fill="#0A0414"/>
</svg>
