<svg width="15" height="18" viewBox="0 0 15 18"  xmlns="http://www.w3.org/2000/svg">
<path d="M0 0H1.8V1.8C1.8 3.096 2.412 4.149 3.492 5.202C4.266 5.949 5.301 6.669 6.381 7.38L4.734 8.451C3.843 7.848 2.979 7.2 2.25 6.489C0.963 5.238 0 3.69 0 1.8V0ZM12.6 0H14.4V1.8C14.4 3.69 13.437 5.238 12.15 6.489C10.881 7.731 9.261 8.757 7.686 9.756C6.111 10.764 4.581 11.745 3.492 12.798C2.412 13.851 1.8 14.904 1.8 16.2V18H0V16.2C0 14.31 0.963 12.762 2.25 11.511C3.519 10.269 5.139 9.243 6.714 8.244C8.289 7.236 9.819 6.255 10.908 5.202C11.988 4.149 12.6 3.096 12.6 1.8V0ZM9.666 9.549C10.557 10.152 11.421 10.8 12.15 11.511C13.437 12.762 14.4 14.31 14.4 16.2V18H12.6V16.2C12.6 14.904 11.988 13.851 10.908 12.798C10.134 12.051 9.099 11.331 8.019 10.62L9.666 9.549ZM2.7 0.9H11.7V1.8L11.646 2.25H2.754L2.7 1.8V0.9ZM3.312 3.6H11.088C10.872 3.906 10.62 4.221 10.278 4.554L9.819 4.95H4.563L4.122 4.554C3.78 4.221 3.528 3.906 3.312 3.6ZM4.581 13.05H9.837L10.278 13.446C10.62 13.779 10.872 14.094 11.088 14.4H3.312C3.528 14.094 3.78 13.779 4.122 13.446L4.581 13.05ZM2.754 15.75H11.646L11.7 16.2V17.1H2.7V16.2L2.754 15.75Z" />
</svg>
