<svg width="20" height="16" viewBox="0 0 20 16"  xmlns="http://www.w3.org/2000/svg">
<path d="M2 0C0.89 0 0 0.89 0 2V14C0 14.5304 0.210714 15.0391 0.585786 15.4142C0.960859 15.7893 1.46957 16 2 16H18C18.5304 16 19.0391 15.7893 19.4142 15.4142C19.7893 15.0391 20 14.5304 20 14V2C20 0.89 19.1 0 18 0H2ZM2 2H9V4.13C7.24 4.59 6 6.18 6 8C6 9.82 7.24 11.41 9 11.87V14H2V12H5V4H2V2ZM11 2H18V4H15V12H18V14H11V11.87C12.76 11.41 14 9.82 14 8C14 6.18 12.76 4.59 11 4.13V2ZM2 6H3V10H2V6ZM17 6H18V10H17V6ZM11 6.27C11.62 6.63 12 7.29 12 8C12 8.71 11.62 9.37 11 9.73V6.27ZM9 6.27V9.73C8.38 9.37 8 8.71 8 8C8 7.29 8.38 6.63 9 6.27Z" />
</svg>
